<?xml version="1.0" encoding="utf-8"?>
<!-- Generator: Adobe Illustrator 24.2.1, SVG Export Plug-In . SVG Version: 6.00 Build 0)  -->
<svg version="1.1" id="Layer_1" xmlns="http://www.w3.org/2000/svg" xmlns:xlink="http://www.w3.org/1999/xlink" x="0px" y="0px"
	 viewBox="0 0 1774.6 504" style="enable-background:new 0 0 1774.6 504;" xml:space="preserve">
<style type="text/css">
	.st0{clip-path:url(#SVGID_2_);}
	.st1{fill-rule:evenodd;clip-rule:evenodd;fill:#D2714E;}
	.st2{clip-path:url(#SVGID_4_);}
	.st3{fill:#2B2825;}
	.st4{clip-path:url(#SVGID_6_);}
</style>
<g>
	<defs>
		<rect id="SVGID_1_" x="69.3" y="43.1" width="614.4" height="415.2"/>
	</defs>
	<clipPath id="SVGID_2_">
		<use xlink:href="#SVGID_1_"  style="overflow:visible;"/>
	</clipPath>
	<g class="st0">
		<path class="st1" d="M221.8,152.8v54.8c0,30.1,24.7,54.8,54.8,54.8h200c30.1,0,54.8-24.7,54.8-54.8V97.9
			c0-30.1-24.7-54.8-54.8-54.8h-200c-30.1,0-54.8,24.7-54.8,54.8V152.8z M683.5,129.4H560.8v78.2c0,46.3-37.9,84.2-84.2,84.2h-200
			c-46.3,0-84.2-37.9-84.2-84.2v-78.2H69.8v137.4c0,67,48.6,123.2,112.3,135L168,430c-3,6-0.5,13.3,5.4,16.2l19.1,9.5
			c6,3,13.3,0.5,16.2-5.4l23-46.2h289.7l23,46.2c3,6,10.3,8.4,16.2,5.4l19.1-9.5c5.9-3,8.4-10.3,5.4-16.2l-14-28.2
			c63.7-11.9,112.3-68.1,112.3-135V129.4z"/>
	</g>
</g>
<g transform="matrix(1, 0, 0, 1, 640, 299)">
	<g>
		<defs>
			<rect id="SVGID_3_" x="103.7" y="-199.4" width="977.3" height="218.7"/>
		</defs>
		<clipPath id="SVGID_4_">
			<use xlink:href="#SVGID_3_"  style="overflow:visible;"/>
		</clipPath>
		<g class="st2">
			<g>
				<g transform="translate(5.76154, 124.067163)">
					<g>
						<path class="st3" d="M234.6-158l-10.3-21.1h-76.1L138.1-158h-33.7l82.9-159.8l83,159.8H234.6z M185.9-257.5l-23.6,48.9h47.6
							L185.9-257.5z"/>
					</g>
				</g>
			</g>
			<g>
				<g transform="translate(128.280036, 124.067163)">
					<g>
						<path class="st3" d="M210.5-185.2h-16.4v27.2h-32.7v-157H216c9.3,0,17.8,1.6,25.7,4.8c7.9,3.2,14.8,7.6,20.7,13.3
							c5.9,5.7,10.5,12.3,13.8,19.7c3.3,7.4,5,15.5,5,24c0,14-3.2,26.1-9.5,36.3c-6.3,10.1-15,17.7-25.9,22.8l33.9,36.3h-43.4
							L210.5-185.2z M194.1-214.8h13.5c12.9,0,22.8-3.1,29.7-9.3c6.9-6.2,10.3-15.1,10.3-26.8c0-6.5-1.3-12.3-3.8-17.5
							c-2.5-5.2-6.3-9.4-11.3-12.5c-5-3.2-11.2-4.8-18.6-4.8h-19.8V-214.8z"/>
					</g>
				</g>
			</g>
			<g>
				<g transform="translate(234.989666, 124.067163)">
					<g>
						<path class="st3" d="M229.7-315.1v157H197v-157H229.7z"/>
					</g>
				</g>
			</g>
			<g>
				<g transform="translate(281.941887, 124.067163)">
					<g>
						<path class="st3" d="M250.4-227.6c-13.6-1.5-24.5-6.3-32.7-14.3c-8.2-8-12.2-18.2-12.2-30.6c0-6.6,1.4-12.7,4.1-18.2
							c2.8-5.6,6.4-10.4,10.9-14.4c4.5-4.1,9.4-7.2,14.9-9.4c5.4-2.2,10.9-3.3,16.3-3.3c7.9,0,15.4,1.6,22.6,4.8
							c7.2,3.2,13.8,8.3,19.8,15.5l-25.7,18.8c-2.1-2.2-4.7-4.1-7.8-5.6c-3.1-1.5-6-2.2-8.9-2.2c-4.3,0-7.9,1.2-10.5,3.7
							c-2.7,2.5-4,5.9-4,10.2c0,3.5,1.6,6.7,4.7,9.6c3.2,2.9,8.9,4.6,17.2,5.1c9,0.6,17.2,2.9,24.6,7c7.4,4.1,13.3,9.8,17.7,17.1
							c4.4,7.3,6.6,16,6.6,26.1c0,10.1-2.5,19.2-7.5,27.1c-5,7.9-11.5,14.1-19.6,18.6c-8.1,4.5-16.7,6.8-26,6.8
							c-9,0-17.9-1.8-26.6-5.4c-8.7-3.6-16.8-9.4-24.2-17.6l27-19.8c3.7,4.5,7.4,7.5,11.2,9.1c3.8,1.5,8,2.3,12.6,2.3
							c5.3,0,9.9-1.9,13.6-5.6c3.7-3.7,5.6-8.1,5.6-13.2c0-6.3-2-11.4-6.1-15.2C263.8-224.4,257.9-226.8,250.4-227.6z"/>
					</g>
				</g>
			</g>
			<g>
				<g transform="translate(369.839042, 124.067163)">
					<g>
						<path class="st3" d="M302.4-158h-32.7v-127.5H231v-29.5h112.8v29.5h-41.3V-158z"/>
					</g>
				</g>
			</g>
			<g>
				<g transform="translate(460.423723, 124.067163)">
					<g>
						<path class="st3" d="M347-155.3c-11.2,0-21.8-2.1-31.6-6.3c-9.8-4.2-18.5-10.1-25.9-17.5c-7.4-7.4-13.3-16.1-17.5-25.9
							c-4.2-9.8-6.3-20.4-6.3-31.6c0-11.2,2.1-21.7,6.3-31.5c4.2-9.8,10.1-18.4,17.5-25.8c7.4-7.4,16-13.3,25.8-17.5
							c9.8-4.2,20.3-6.3,31.5-6.3c11.3,0,21.8,2.1,31.6,6.3c9.8,4.2,18.5,10,25.9,17.5c7.5,7.4,13.3,16.1,17.5,25.8
							c4.2,9.8,6.3,20.3,6.3,31.5c0,11.2-2.1,21.8-6.3,31.6c-4.2,9.8-10,18.5-17.5,25.9c-7.4,7.4-16.1,13.3-25.8,17.5
							C368.7-157.4,358.2-155.3,347-155.3z M346.7-286.6c-8.8,0-16.9,2.3-24.1,6.8c-7.2,4.5-13,10.5-17.2,18
							c-4.2,7.5-6.3,15.9-6.3,25.2c0,9.3,2.1,17.7,6.3,25.3c4.2,7.6,9.9,13.6,17.2,18c7.2,4.4,15.3,6.6,24.3,6.6
							c8.9,0,16.9-2.2,24.1-6.6c7.2-4.4,13-10.4,17.2-18c4.2-7.6,6.3-16,6.3-25.3c0-9.3-2.1-17.7-6.4-25.2c-4.3-7.5-10-13.5-17.3-18
							C363.7-284.4,355.6-286.6,346.7-286.6z"/>
					</g>
				</g>
			</g>
			<g>
				<g transform="translate(594.956947, 124.067163)">
					<g>
						<path class="st3" d="M428.7-224.2v-90.9h32.7v159.8l-111.7-93v90.2H317v-160L428.7-224.2z"/>
					</g>
				</g>
			</g>
		</g>
	</g>
</g>
<g transform="matrix(1, 0, 0, 1, 635, 438)">
	<g>
		<defs>
			<rect id="SVGID_5_" x="102" y="-153.1" width="992" height="138.7"/>
		</defs>
		<clipPath id="SVGID_6_">
			<use xlink:href="#SVGID_5_"  style="overflow:visible;"/>
		</clipPath>
		<g class="st4">
			<g>
				<g transform="translate(6.630658, 73.400211)">
					<g>
						<path class="st3" d="M149.7-195.9v7.1h-29.2v22.7h23.7v7.1h-23.7v30.3h-8.8v-67.3H149.7z"/>
					</g>
				</g>
			</g>
			<g>
				<g transform="translate(51.529172, 73.400211)">
					<g>
						<path class="st3" d="M135.2-195.9v42.6c0,6,1.5,10.4,4.4,13.3c2.9,2.9,7,4.4,12.2,4.4c5.1,0,9.2-1.4,12.1-4.4
							c2.9-2.9,4.4-7.3,4.4-13.3v-42.6h8.8v42.5c0,5.6-1.1,10.3-3.4,14.1c-2.3,3.8-5.3,6.7-9.1,8.5c-3.8,1.9-8.1,2.8-12.9,2.8
							c-4.8,0-9.1-0.9-12.9-2.8c-3.8-1.9-6.9-4.7-9.1-8.5c-2.2-3.8-3.3-8.5-3.3-14.1v-42.5H135.2z"/>
					</g>
				</g>
			</g>
			<g>
				<g transform="translate(108.810816, 73.400211)">
					<g>
						<path class="st3" d="M181.2-128.6l-16-27.5h-10.6v27.5h-8.8v-67.3h21.7c5.1,0,9.4,0.9,12.9,2.6c3.5,1.7,6.1,4.1,7.9,7
							c1.7,3,2.6,6.3,2.6,10.1c0,4.6-1.3,8.7-4,12.3s-6.7,5.9-12,7.1l16.9,28.2H181.2z M154.5-163.2h12.9c4.8,0,8.3-1.2,10.7-3.5
							c2.4-2.4,3.6-5.5,3.6-9.4c0-4-1.2-7.1-3.5-9.3c-2.3-2.2-5.9-3.3-10.8-3.3h-12.9V-163.2z"/>
					</g>
				</g>
			</g>
			<g>
				<g transform="translate(161.24059, 73.400211)">
					<g>
						<path class="st3" d="M216.1-128.6h-8.8L172-182.2v53.6h-8.8V-196h8.8l35.3,53.5V-196h8.8V-128.6z"/>
					</g>
				</g>
			</g>
			<g>
				<g transform="translate(220.549962, 73.400211)">
					<g>
						<path class="st3" d="M191.8-195.9v67.3H183v-67.3H191.8z"/>
					</g>
				</g>
			</g>
			<g>
				<g transform="translate(246.765033, 73.400211)">
					<g>
						<path class="st3" d="M233.1-195.9v7.1h-18.3v60.2H206v-60.2h-18.4v-7.1H233.1z"/>
					</g>
				</g>
			</g>
			<g>
				<g transform="translate(294.342937, 73.400211)">
					<g>
						<path class="st3" d="M216.2-195.9v42.6c0,6,1.5,10.4,4.4,13.3c2.9,2.9,7,4.4,12.2,4.4c5.1,0,9.2-1.4,12.1-4.4
							c2.9-2.9,4.4-7.3,4.4-13.3v-42.6h8.8v42.5c0,5.6-1.1,10.3-3.4,14.1c-2.3,3.8-5.3,6.7-9.1,8.5c-3.8,1.9-8.1,2.8-12.9,2.8
							c-4.8,0-9.1-0.9-12.9-2.8c-3.8-1.9-6.9-4.7-9.1-8.5c-2.2-3.8-3.3-8.5-3.3-14.1v-42.5H216.2z"/>
					</g>
				</g>
			</g>
			<g>
				<g transform="translate(351.62458, 73.400211)">
					<g>
						<path class="st3" d="M262.1-128.6l-16-27.5h-10.6v27.5h-8.8v-67.3h21.7c5.1,0,9.4,0.9,12.9,2.6c3.5,1.7,6.1,4.1,7.9,7
							c1.7,3,2.6,6.3,2.6,10.1c0,4.6-1.3,8.7-4,12.3c-2.7,3.5-6.7,5.9-12,7.1l16.9,28.2H262.1z M235.5-163.2h12.9
							c4.8,0,8.3-1.2,10.7-3.5c2.4-2.4,3.6-5.5,3.6-9.4c0-4-1.2-7.1-3.5-9.3c-2.3-2.2-5.9-3.3-10.8-3.3h-12.9V-163.2z"/>
					</g>
				</g>
			</g>
			<g>
				<g transform="translate(404.054354, 73.400211)">
					<g>
						<path class="st3" d="M252.9-188.8v22.5h24.5v7.3h-24.5v23.2h27.4v7.3h-36.2V-196h36.2v7.2H252.9z"/>
					</g>
				</g>
			</g>
			<g>
				<g transform="translate(477.340328, 73.400211)">
					<g>
						<path class="st3" d="M289.9-127.9c-4.4,0-8.4-0.8-11.9-2.4c-3.5-1.6-6.3-3.8-8.3-6.6c-2-2.8-3-6-3.1-9.7h9.4
							c0.3,3.2,1.6,5.8,3.9,8c2.3,2.2,5.6,3.2,10,3.2c4.2,0,7.5-1,9.9-3.1c2.4-2.1,3.6-4.8,3.6-8.1c0-2.6-0.7-4.7-2.1-6.3
							c-1.4-1.6-3.2-2.8-5.3-3.7c-2.1-0.8-5-1.8-8.6-2.7c-4.4-1.2-8-2.3-10.7-3.5c-2.7-1.2-5-3-6.9-5.5c-1.9-2.5-2.8-5.8-2.8-10
							c0-3.7,0.9-6.9,2.8-9.8c1.9-2.8,4.5-5,7.9-6.6c3.4-1.5,7.3-2.3,11.6-2.3c6.3,0,11.5,1.6,15.5,4.7c4,3.2,6.3,7.3,6.8,12.5H302
							c-0.3-2.6-1.7-4.8-4.1-6.8c-2.4-2-5.5-3-9.4-3c-3.7,0-6.7,1-9,2.9c-2.3,1.9-3.5,4.6-3.5,8c0,2.4,0.7,4.4,2.1,6
							c1.4,1.5,3.1,2.7,5.1,3.5c2,0.8,4.9,1.7,8.5,2.8c4.4,1.2,8,2.4,10.7,3.6c2.7,1.2,5,3,7,5.5c1.9,2.5,2.9,5.8,2.9,10.1
							c0,3.3-0.9,6.4-2.6,9.3c-1.7,2.9-4.3,5.2-7.7,7C298.6-128.8,294.5-127.9,289.9-127.9z"/>
					</g>
				</g>
			</g>
			<g>
				<g transform="translate(528.249375, 73.400211)">
					<g>
						<path class="st3" d="M327-195.9v7.1h-18.3v60.2h-8.8v-60.2h-18.4v-7.1H327z"/>
					</g>
				</g>
			</g>
			<g>
				<g transform="translate(575.827278, 73.400211)">
					<g>
						<path class="st3" d="M331.9-127.9c-6.3,0-12-1.5-17.1-4.4c-5.2-2.9-9.2-7-12.2-12.3c-3-5.3-4.5-11.2-4.5-17.7
							c0-6.6,1.5-12.5,4.5-17.7c3-5.3,7.1-9.3,12.2-12.3c5.2-2.9,10.9-4.4,17.1-4.4c6.3,0,12,1.5,17.2,4.4c5.2,2.9,9.2,7,12.2,12.2
							c3,5.2,4.5,11.1,4.5,17.8c0,6.6-1.5,12.6-4.5,17.8c-3,5.2-7,9.3-12.2,12.2C343.9-129.4,338.2-127.9,331.9-127.9z M331.9-135.6
							c4.7,0,8.9-1.1,12.7-3.3c3.8-2.2,6.7-5.3,8.9-9.4c2.2-4.1,3.3-8.8,3.3-14.1c0-5.4-1.1-10.1-3.3-14.1c-2.2-4-5.1-7.1-8.8-9.3
							c-3.7-2.2-8-3.3-12.7-3.3c-4.8,0-9,1.1-12.8,3.3c-3.7,2.2-6.7,5.3-8.9,9.3c-2.2,4-3.2,8.7-3.2,14.1c0,5.3,1.1,10.1,3.2,14.1
							c2.2,4.1,5.1,7.2,8.9,9.4C323-136.6,327.2-135.6,331.9-135.6z"/>
					</g>
				</g>
			</g>
			<g>
				<g transform="translate(641.147183, 73.400211)">
					<g>
						<path class="st3" d="M358.6-128.6l-16-27.5H332v27.5h-8.8v-67.3h21.7c5.1,0,9.4,0.9,12.9,2.6c3.5,1.7,6.1,4.1,7.9,7
							c1.7,3,2.6,6.3,2.6,10.1c0,4.6-1.3,8.7-4,12.3c-2.7,3.5-6.7,5.9-12,7.1l16.9,28.2H358.6z M332-163.2h12.9
							c4.8,0,8.3-1.2,10.7-3.5c2.4-2.4,3.6-5.5,3.6-9.4c0-4-1.2-7.1-3.5-9.3c-2.3-2.2-5.9-3.3-10.8-3.3H332V-163.2z"/>
					</g>
				</g>
			</g>
			<g>
				<g transform="translate(693.576957, 73.400211)">
					<g>
						<path class="st3" d="M349.4-188.8v22.5H374v7.3h-24.5v23.2h27.4v7.3h-36.2V-196h36.2v7.2H349.4z"/>
					</g>
				</g>
			</g>
		</g>
	</g>
</g>
</svg>
