<svg xmlns="http://www.w3.org/2000/svg" xmlns:xlink="http://www.w3.org/1999/xlink" width="2000" zoomAndPan="magnify" viewBox="0 0 1500 824.999997" height="1100" preserveAspectRatio="xMidYMid meet" version="1.0"><defs><g/><clipPath id="b8100e574f"><path d="M 134.199219 256.609375 L 595 256.609375 L 595 568 L 134.199219 568 Z M 134.199219 256.609375 " clip-rule="nonzero"/></clipPath><clipPath id="7795188b05"><rect x="0" width="733" y="0" height="164"/></clipPath><clipPath id="74d37084bb"><rect x="0" width="744" y="0" height="104"/></clipPath></defs><g clip-path="url(#b8100e574f)"><path fill="#d2714e" d="M 248.597656 338.882812 L 248.597656 380.011719 C 248.597656 402.589844 267.148438 421.144531 289.726562 421.144531 L 439.714844 421.144531 C 462.289062 421.144531 480.84375 402.589844 480.84375 380.011719 L 480.84375 297.753906 C 480.84375 275.175781 462.289062 256.625 439.714844 256.625 L 289.726562 256.625 C 267.148438 256.625 248.597656 275.175781 248.597656 297.753906 Z M 594.863281 321.367188 L 502.867188 321.367188 L 502.867188 380.011719 C 502.867188 414.746094 474.445312 443.164062 439.714844 443.164062 L 289.726562 443.164062 C 254.992188 443.164062 226.574219 414.746094 226.574219 380.011719 L 226.574219 321.367188 L 134.578125 321.367188 L 134.578125 424.382812 C 134.578125 474.628906 171.027344 516.75 218.785156 525.652344 L 208.25 546.835938 C 206.03125 551.300781 207.863281 556.773438 212.328125 558.992188 L 226.6875 566.128906 C 231.152344 568.34375 236.625 566.511719 238.84375 562.046875 L 256.089844 527.386719 L 473.351562 527.386719 L 490.597656 562.046875 C 492.816406 566.511719 498.289062 568.34375 502.753906 566.128906 L 517.113281 558.992188 C 521.574219 556.773438 523.410156 551.300781 521.191406 546.835938 L 510.65625 525.652344 C 558.410156 516.75 594.863281 474.613281 594.863281 424.382812 Z M 594.863281 321.367188 " fill-opacity="1" fill-rule="evenodd"/></g><g transform="matrix(1, 0, 0, 1, 640, 299)"><g clip-path="url(#7795188b05)"><g fill="#2b2825" fill-opacity="1"><g transform="translate(5.76154, 124.067163)"><g><path d="M 96.75 0 L 89 -15.8125 L 31.9375 -15.8125 L 24.34375 0 L -0.953125 0 L 61.1875 -119.828125 L 123.46875 0 Z M 60.234375 -74.625 L 42.53125 -37.9375 L 78.25 -37.9375 Z M 60.234375 -74.625 "/></g></g></g><g fill="#2b2825" fill-opacity="1"><g transform="translate(128.280036, 124.067163)"><g><path d="M 48.0625 -20.390625 L 35.734375 -20.390625 L 35.734375 0 L 11.21875 0 L 11.21875 -117.78125 L 52.171875 -117.78125 C 59.128906 -117.78125 65.554688 -116.59375 71.453125 -114.21875 C 77.359375 -111.851562 82.523438 -108.535156 86.953125 -104.265625 C 91.378906 -99.992188 94.828125 -95.066406 97.296875 -89.484375 C 99.773438 -83.898438 101.015625 -77.890625 101.015625 -71.453125 C 101.015625 -60.921875 98.644531 -51.859375 93.90625 -44.265625 C 89.164062 -36.679688 82.6875 -30.988281 74.46875 -27.1875 L 99.921875 0 L 67.34375 0 Z M 35.734375 -42.53125 L 45.84375 -42.53125 C 55.539062 -42.53125 62.972656 -44.847656 68.140625 -49.484375 C 73.304688 -54.117188 75.890625 -60.8125 75.890625 -69.5625 C 75.890625 -74.40625 74.9375 -78.773438 73.03125 -82.671875 C 71.132812 -86.578125 68.316406 -89.710938 64.578125 -92.078125 C 60.835938 -94.453125 56.175781 -95.640625 50.59375 -95.640625 L 35.734375 -95.640625 Z M 35.734375 -42.53125 "/></g></g></g><g fill="#2b2825" fill-opacity="1"><g transform="translate(234.989666, 124.067163)"><g><path d="M 35.734375 -117.78125 L 35.734375 0 L 11.21875 0 L 11.21875 -117.78125 Z M 35.734375 -117.78125 "/></g></g></g><g fill="#2b2825" fill-opacity="1"><g transform="translate(281.941887, 124.067163)"><g><path d="M 39.515625 -52.171875 C 29.296875 -53.328125 21.128906 -56.910156 15.015625 -62.921875 C 8.898438 -68.929688 5.84375 -76.570312 5.84375 -85.84375 C 5.84375 -90.800781 6.867188 -95.359375 8.921875 -99.515625 C 10.984375 -103.679688 13.703125 -107.289062 17.078125 -110.34375 C 20.453125 -113.40625 24.164062 -115.75 28.21875 -117.375 C 32.28125 -119.007812 36.363281 -119.828125 40.46875 -119.828125 C 46.375 -119.828125 52.015625 -118.640625 57.390625 -116.265625 C 62.765625 -113.898438 67.71875 -110.03125 72.25 -104.65625 L 52.96875 -90.59375 C 51.382812 -92.269531 49.429688 -93.660156 47.109375 -94.765625 C 44.796875 -95.878906 42.582031 -96.4375 40.46875 -96.4375 C 37.207031 -96.4375 34.570312 -95.515625 32.5625 -93.671875 C 30.5625 -91.828125 29.5625 -89.269531 29.5625 -86 C 29.5625 -83.363281 30.742188 -80.960938 33.109375 -78.796875 C 35.484375 -76.640625 39.78125 -75.351562 46 -74.9375 C 52.75 -74.507812 58.890625 -72.769531 64.421875 -69.71875 C 69.953125 -66.664062 74.378906 -62.394531 77.703125 -56.90625 C 81.023438 -51.425781 82.6875 -44.894531 82.6875 -37.3125 C 82.6875 -29.71875 80.8125 -22.941406 77.0625 -16.984375 C 73.320312 -11.035156 68.421875 -6.375 62.359375 -3 C 56.304688 0.375 49.800781 2.0625 42.84375 2.0625 C 36.09375 2.0625 29.453125 0.71875 22.921875 -1.96875 C 16.390625 -4.65625 10.332031 -9.054688 4.75 -15.171875 L 24.984375 -30.03125 C 27.722656 -26.664062 30.515625 -24.398438 33.359375 -23.234375 C 36.203125 -22.078125 39.363281 -21.5 42.84375 -21.5 C 46.84375 -21.5 50.238281 -22.894531 53.03125 -25.6875 C 55.832031 -28.476562 57.234375 -31.773438 57.234375 -35.578125 C 57.234375 -40.316406 55.703125 -44.109375 52.640625 -46.953125 C 49.585938 -49.796875 45.210938 -51.535156 39.515625 -52.171875 Z M 39.515625 -52.171875 "/></g></g></g><g fill="#2b2825" fill-opacity="1"><g transform="translate(369.839042, 124.067163)"><g><path d="M 56.59375 0 L 32.09375 0 L 32.09375 -95.640625 L 3 -95.640625 L 3 -117.78125 L 87.578125 -117.78125 L 87.578125 -95.640625 L 56.59375 -95.640625 Z M 56.59375 0 "/></g></g></g><g fill="#2b2825" fill-opacity="1"><g transform="translate(460.423723, 124.067163)"><g><path d="M 67.34375 2.0625 C 58.914062 2.0625 51.007812 0.476562 43.625 -2.6875 C 36.25 -5.851562 29.769531 -10.226562 24.1875 -15.8125 C 18.601562 -21.394531 14.226562 -27.875 11.0625 -35.25 C 7.90625 -42.632812 6.328125 -50.539062 6.328125 -58.96875 C 6.328125 -67.394531 7.90625 -75.269531 11.0625 -82.59375 C 14.226562 -89.925781 18.601562 -96.382812 24.1875 -101.96875 C 29.769531 -107.550781 36.222656 -111.921875 43.546875 -115.078125 C 50.878906 -118.242188 58.757812 -119.828125 67.1875 -119.828125 C 75.625 -119.828125 83.53125 -118.242188 90.90625 -115.078125 C 98.28125 -111.921875 104.757812 -107.550781 110.34375 -101.96875 C 115.9375 -96.382812 120.3125 -89.925781 123.46875 -82.59375 C 126.632812 -75.269531 128.21875 -67.394531 128.21875 -58.96875 C 128.21875 -50.539062 126.632812 -42.632812 123.46875 -35.25 C 120.3125 -27.875 115.9375 -21.394531 110.34375 -15.8125 C 104.757812 -10.226562 98.304688 -5.851562 90.984375 -2.6875 C 83.660156 0.476562 75.78125 2.0625 67.34375 2.0625 Z M 67.1875 -96.4375 C 60.550781 -96.4375 54.519531 -94.75 49.09375 -91.375 C 43.664062 -88 39.367188 -83.492188 36.203125 -77.859375 C 33.035156 -72.222656 31.453125 -65.925781 31.453125 -58.96875 C 31.453125 -52.007812 33.035156 -45.679688 36.203125 -39.984375 C 39.367188 -34.296875 43.664062 -29.789062 49.09375 -26.46875 C 54.519531 -23.15625 60.601562 -21.5 67.34375 -21.5 C 73.988281 -21.5 80.023438 -23.15625 85.453125 -26.46875 C 90.878906 -29.789062 95.171875 -34.296875 98.328125 -39.984375 C 101.492188 -45.679688 103.078125 -52.007812 103.078125 -58.96875 C 103.078125 -65.925781 101.46875 -72.222656 98.25 -77.859375 C 95.039062 -83.492188 90.722656 -88 85.296875 -91.375 C 79.867188 -94.75 73.832031 -96.4375 67.1875 -96.4375 Z M 67.1875 -96.4375 "/></g></g></g><g fill="#2b2825" fill-opacity="1"><g transform="translate(594.956947, 124.067163)"><g><path d="M 95.015625 -49.640625 L 95.015625 -117.78125 L 119.515625 -117.78125 L 119.515625 2.0625 L 35.734375 -67.671875 L 35.734375 0 L 11.21875 0 L 11.21875 -120 Z M 95.015625 -49.640625 "/></g></g></g></g></g><g transform="matrix(1, 0, 0, 1, 635, 438)"><g clip-path="url(#74d37084bb)"><g fill="#2b2825" fill-opacity="1"><g transform="translate(6.630658, 73.400211)"><g><path d="M 34.109375 -50.484375 L 34.109375 -45.125 L 12.171875 -45.125 L 12.171875 -28.09375 L 29.984375 -28.09375 L 29.984375 -22.734375 L 12.171875 -22.734375 L 12.171875 0 L 5.578125 0 L 5.578125 -50.484375 Z M 34.109375 -50.484375 "/></g></g></g><g fill="#2b2825" fill-opacity="1"><g transform="translate(51.529172, 73.400211)"><g><path d="M 12.015625 -50.484375 L 12.015625 -18.546875 C 12.015625 -14.054688 13.113281 -10.722656 15.3125 -8.546875 C 17.507812 -6.367188 20.566406 -5.28125 24.484375 -5.28125 C 28.335938 -5.28125 31.363281 -6.367188 33.5625 -8.546875 C 35.757812 -10.722656 36.859375 -14.054688 36.859375 -18.546875 L 36.859375 -50.484375 L 43.453125 -50.484375 L 43.453125 -18.609375 C 43.453125 -14.410156 42.609375 -10.875 40.921875 -8 C 39.234375 -5.125 36.953125 -2.988281 34.078125 -1.59375 C 31.203125 -0.195312 27.976562 0.5 24.40625 0.5 C 20.832031 0.5 17.609375 -0.195312 14.734375 -1.59375 C 11.859375 -2.988281 9.585938 -5.125 7.921875 -8 C 6.265625 -10.875 5.4375 -14.410156 5.4375 -18.609375 L 5.4375 -50.484375 Z M 12.015625 -50.484375 "/></g></g></g><g fill="#2b2825" fill-opacity="1"><g transform="translate(108.810816, 73.400211)"><g><path d="M 32.15625 0 L 20.140625 -20.640625 L 12.171875 -20.640625 L 12.171875 0 L 5.578125 0 L 5.578125 -50.484375 L 21.875 -50.484375 C 25.6875 -50.484375 28.90625 -49.828125 31.53125 -48.515625 C 34.164062 -47.210938 36.132812 -45.453125 37.4375 -43.234375 C 38.738281 -41.015625 39.390625 -38.476562 39.390625 -35.625 C 39.390625 -32.15625 38.390625 -29.09375 36.390625 -26.4375 C 34.390625 -23.78125 31.382812 -22.015625 27.375 -21.140625 L 40.046875 0 Z M 12.171875 -25.921875 L 21.875 -25.921875 C 25.445312 -25.921875 28.125 -26.800781 29.90625 -28.5625 C 31.695312 -30.332031 32.59375 -32.6875 32.59375 -35.625 C 32.59375 -38.625 31.707031 -40.941406 29.9375 -42.578125 C 28.175781 -44.222656 25.488281 -45.046875 21.875 -45.046875 L 12.171875 -45.046875 Z M 12.171875 -25.921875 "/></g></g></g><g fill="#2b2825" fill-opacity="1"><g transform="translate(161.24059, 73.400211)"><g><path d="M 45.265625 0 L 38.671875 0 L 12.171875 -40.1875 L 12.171875 0 L 5.578125 0 L 5.578125 -50.546875 L 12.171875 -50.546875 L 38.671875 -10.421875 L 38.671875 -50.546875 L 45.265625 -50.546875 Z M 45.265625 0 "/></g></g></g><g fill="#2b2825" fill-opacity="1"><g transform="translate(220.549962, 73.400211)"><g><path d="M 12.171875 -50.484375 L 12.171875 0 L 5.578125 0 L 5.578125 -50.484375 Z M 12.171875 -50.484375 "/></g></g></g><g fill="#2b2825" fill-opacity="1"><g transform="translate(246.765033, 73.400211)"><g><path d="M 36.640625 -50.484375 L 36.640625 -45.125 L 22.890625 -45.125 L 22.890625 0 L 16.296875 0 L 16.296875 -45.125 L 2.46875 -45.125 L 2.46875 -50.484375 Z M 36.640625 -50.484375 "/></g></g></g><g fill="#2b2825" fill-opacity="1"><g transform="translate(294.342937, 73.400211)"><g><path d="M 12.015625 -50.484375 L 12.015625 -18.546875 C 12.015625 -14.054688 13.113281 -10.722656 15.3125 -8.546875 C 17.507812 -6.367188 20.566406 -5.28125 24.484375 -5.28125 C 28.335938 -5.28125 31.363281 -6.367188 33.5625 -8.546875 C 35.757812 -10.722656 36.859375 -14.054688 36.859375 -18.546875 L 36.859375 -50.484375 L 43.453125 -50.484375 L 43.453125 -18.609375 C 43.453125 -14.410156 42.609375 -10.875 40.921875 -8 C 39.234375 -5.125 36.953125 -2.988281 34.078125 -1.59375 C 31.203125 -0.195312 27.976562 0.5 24.40625 0.5 C 20.832031 0.5 17.609375 -0.195312 14.734375 -1.59375 C 11.859375 -2.988281 9.585938 -5.125 7.921875 -8 C 6.265625 -10.875 5.4375 -14.410156 5.4375 -18.609375 L 5.4375 -50.484375 Z M 12.015625 -50.484375 "/></g></g></g><g fill="#2b2825" fill-opacity="1"><g transform="translate(351.62458, 73.400211)"><g><path d="M 32.15625 0 L 20.140625 -20.640625 L 12.171875 -20.640625 L 12.171875 0 L 5.578125 0 L 5.578125 -50.484375 L 21.875 -50.484375 C 25.6875 -50.484375 28.90625 -49.828125 31.53125 -48.515625 C 34.164062 -47.210938 36.132812 -45.453125 37.4375 -43.234375 C 38.738281 -41.015625 39.390625 -38.476562 39.390625 -35.625 C 39.390625 -32.15625 38.390625 -29.09375 36.390625 -26.4375 C 34.390625 -23.78125 31.382812 -22.015625 27.375 -21.140625 L 40.046875 0 Z M 12.171875 -25.921875 L 21.875 -25.921875 C 25.445312 -25.921875 28.125 -26.800781 29.90625 -28.5625 C 31.695312 -30.332031 32.59375 -32.6875 32.59375 -35.625 C 32.59375 -38.625 31.707031 -40.941406 29.9375 -42.578125 C 28.175781 -44.222656 25.488281 -45.046875 21.875 -45.046875 L 12.171875 -45.046875 Z M 12.171875 -25.921875 "/></g></g></g><g fill="#2b2825" fill-opacity="1"><g transform="translate(404.054354, 73.400211)"><g><path d="M 12.171875 -45.125 L 12.171875 -28.25 L 30.5625 -28.25 L 30.5625 -22.8125 L 12.171875 -22.8125 L 12.171875 -5.4375 L 32.734375 -5.4375 L 32.734375 0 L 5.578125 0 L 5.578125 -50.546875 L 32.734375 -50.546875 L 32.734375 -45.125 Z M 12.171875 -45.125 "/></g></g></g><g fill="#2b2825" fill-opacity="1"><g transform="translate(449.60453, 73.400211)"><g/></g></g><g fill="#2b2825" fill-opacity="1"><g transform="translate(477.340328, 73.400211)"><g><path d="M 21.578125 0.5 C 18.242188 0.5 15.257812 -0.0859375 12.625 -1.265625 C 10 -2.453125 7.9375 -4.09375 6.4375 -6.1875 C 4.945312 -8.289062 4.175781 -10.71875 4.125 -13.46875 L 11.15625 -13.46875 C 11.394531 -11.101562 12.367188 -9.109375 14.078125 -7.484375 C 15.796875 -5.867188 18.296875 -5.0625 21.578125 -5.0625 C 24.722656 -5.0625 27.195312 -5.847656 29 -7.421875 C 30.8125 -8.992188 31.71875 -11.007812 31.71875 -13.46875 C 31.71875 -15.40625 31.1875 -16.972656 30.125 -18.171875 C 29.0625 -19.378906 27.734375 -20.296875 26.140625 -20.921875 C 24.546875 -21.554688 22.398438 -22.234375 19.703125 -22.953125 C 16.367188 -23.828125 13.695312 -24.695312 11.6875 -25.5625 C 9.6875 -26.4375 7.972656 -27.800781 6.546875 -29.65625 C 5.128906 -31.507812 4.421875 -34.007812 4.421875 -37.15625 C 4.421875 -39.90625 5.117188 -42.34375 6.515625 -44.46875 C 7.921875 -46.59375 9.890625 -48.234375 12.421875 -49.390625 C 14.953125 -50.546875 17.859375 -51.125 21.140625 -51.125 C 25.878906 -51.125 29.753906 -49.941406 32.765625 -47.578125 C 35.785156 -45.210938 37.488281 -42.078125 37.875 -38.171875 L 30.640625 -38.171875 C 30.390625 -40.097656 29.367188 -41.796875 27.578125 -43.265625 C 25.796875 -44.742188 23.4375 -45.484375 20.5 -45.484375 C 17.75 -45.484375 15.503906 -44.769531 13.765625 -43.34375 C 12.023438 -41.914062 11.15625 -39.925781 11.15625 -37.375 C 11.15625 -35.539062 11.671875 -34.039062 12.703125 -32.875 C 13.742188 -31.71875 15.023438 -30.835938 16.546875 -30.234375 C 18.066406 -29.628906 20.203125 -28.941406 22.953125 -28.171875 C 26.285156 -27.253906 28.960938 -26.347656 30.984375 -25.453125 C 33.015625 -24.554688 34.753906 -23.179688 36.203125 -21.328125 C 37.660156 -19.472656 38.390625 -16.953125 38.390625 -13.765625 C 38.390625 -11.296875 37.734375 -8.972656 36.421875 -6.796875 C 35.117188 -4.628906 33.1875 -2.867188 30.625 -1.515625 C 28.070312 -0.171875 25.054688 0.5 21.578125 0.5 Z M 21.578125 0.5 "/></g></g></g><g fill="#2b2825" fill-opacity="1"><g transform="translate(528.249375, 73.400211)"><g><path d="M 36.640625 -50.484375 L 36.640625 -45.125 L 22.890625 -45.125 L 22.890625 0 L 16.296875 0 L 16.296875 -45.125 L 2.46875 -45.125 L 2.46875 -50.484375 Z M 36.640625 -50.484375 "/></g></g></g><g fill="#2b2825" fill-opacity="1"><g transform="translate(575.827278, 73.400211)"><g><path d="M 28.46875 0.5 C 23.78125 0.5 19.503906 -0.59375 15.640625 -2.78125 C 11.773438 -4.976562 8.71875 -8.046875 6.46875 -11.984375 C 4.226562 -15.921875 3.109375 -20.351562 3.109375 -25.28125 C 3.109375 -30.195312 4.226562 -34.625 6.46875 -38.5625 C 8.71875 -42.5 11.773438 -45.566406 15.640625 -47.765625 C 19.503906 -49.960938 23.78125 -51.0625 28.46875 -51.0625 C 33.195312 -51.0625 37.488281 -49.960938 41.34375 -47.765625 C 45.207031 -45.566406 48.25 -42.507812 50.46875 -38.59375 C 52.695312 -34.6875 53.8125 -30.25 53.8125 -25.28125 C 53.8125 -20.300781 52.695312 -15.851562 50.46875 -11.9375 C 48.25 -8.03125 45.207031 -4.976562 41.34375 -2.78125 C 37.488281 -0.59375 33.195312 0.5 28.46875 0.5 Z M 28.46875 -5.21875 C 31.988281 -5.21875 35.160156 -6.035156 37.984375 -7.671875 C 40.804688 -9.316406 43.023438 -11.660156 44.640625 -14.703125 C 46.265625 -17.742188 47.078125 -21.269531 47.078125 -25.28125 C 47.078125 -29.332031 46.265625 -32.863281 44.640625 -35.875 C 43.023438 -38.894531 40.816406 -41.226562 38.015625 -42.875 C 35.222656 -44.519531 32.039062 -45.34375 28.46875 -45.34375 C 24.894531 -45.34375 21.707031 -44.519531 18.90625 -42.875 C 16.101562 -41.226562 13.890625 -38.894531 12.265625 -35.875 C 10.648438 -32.863281 9.84375 -29.332031 9.84375 -25.28125 C 9.84375 -21.269531 10.648438 -17.742188 12.265625 -14.703125 C 13.890625 -11.660156 16.113281 -9.316406 18.9375 -7.671875 C 21.757812 -6.035156 24.9375 -5.21875 28.46875 -5.21875 Z M 28.46875 -5.21875 "/></g></g></g><g fill="#2b2825" fill-opacity="1"><g transform="translate(641.147183, 73.400211)"><g><path d="M 32.15625 0 L 20.140625 -20.640625 L 12.171875 -20.640625 L 12.171875 0 L 5.578125 0 L 5.578125 -50.484375 L 21.875 -50.484375 C 25.6875 -50.484375 28.90625 -49.828125 31.53125 -48.515625 C 34.164062 -47.210938 36.132812 -45.453125 37.4375 -43.234375 C 38.738281 -41.015625 39.390625 -38.476562 39.390625 -35.625 C 39.390625 -32.15625 38.390625 -29.09375 36.390625 -26.4375 C 34.390625 -23.78125 31.382812 -22.015625 27.375 -21.140625 L 40.046875 0 Z M 12.171875 -25.921875 L 21.875 -25.921875 C 25.445312 -25.921875 28.125 -26.800781 29.90625 -28.5625 C 31.695312 -30.332031 32.59375 -32.6875 32.59375 -35.625 C 32.59375 -38.625 31.707031 -40.941406 29.9375 -42.578125 C 28.175781 -44.222656 25.488281 -45.046875 21.875 -45.046875 L 12.171875 -45.046875 Z M 12.171875 -25.921875 "/></g></g></g><g fill="#2b2825" fill-opacity="1"><g transform="translate(693.576957, 73.400211)"><g><path d="M 12.171875 -45.125 L 12.171875 -28.25 L 30.5625 -28.25 L 30.5625 -22.8125 L 12.171875 -22.8125 L 12.171875 -5.4375 L 32.734375 -5.4375 L 32.734375 0 L 5.578125 0 L 5.578125 -50.546875 L 32.734375 -50.546875 L 32.734375 -45.125 Z M 12.171875 -45.125 "/></g></g></g></g></g></svg>